HIERARCHY
ROOT Hips
{
	OFFSET 0.00000 0.00000 0.00000
	CHANNELS 6 Xposition Yposition Zposition Zrotation Yrotation Xrotation 
	JOINT LHipJoint
	{
		OFFSET 0 0 0
		CHANNELS 3 Zrotation Yrotation Xrotation
		JOINT LeftHip
		{
			OFFSET 1.81424 -1.42316 1.18090
			CHANNELS 3 Zrotation Yrotation Xrotation
			JOINT LeftKnee
			{
				OFFSET 2.15837 -5.93008 0.00000
				CHANNELS 3 Zrotation Yrotation Xrotation
				JOINT LeftAnkle
				{
					OFFSET 2.51759 -6.91701 0.00000
					CHANNELS 3 Zrotation Yrotation Xrotation
					JOINT LeftToe
					{
						OFFSET 0.18318 -0.50327 1.95113
						CHANNELS 3 Zrotation Yrotation Xrotation
						End Site
						{
							OFFSET 0.00000 -0.00000 1.01524
						}
					}
				}
			}
		}
	}
	JOINT RHipJoint
	{
		OFFSET 0 0 0
		CHANNELS 3 Zrotation Yrotation Xrotation
		JOINT RightHip
		{
			OFFSET -1.43917 -1.42316 1.18090
			CHANNELS 3 Zrotation Yrotation Xrotation
			JOINT RightKnee
			{
				OFFSET -2.25237 -6.18833 0.00000
				CHANNELS 3 Zrotation Yrotation Xrotation
				JOINT RightAnkle
				{
					OFFSET -2.46496 -6.77243 0.00000
					CHANNELS 3 Zrotation Yrotation Xrotation
					JOINT RightToe
					{
						OFFSET -0.26285 -0.72219 1.76148
						CHANNELS 3 Zrotation Yrotation Xrotation
						End Site
						{
							OFFSET -0.00000 -0.00000 0.95109
						}
					}
				}
			}
		}
	}
	JOINT lowerback
	{
		OFFSET 0 0 0
		CHANNELS 3 Zrotation Yrotation Xrotation
		JOINT Chest
		{
			OFFSET -0.08725 1.93754 -0.28890
			CHANNELS 3 Zrotation Yrotation Xrotation
			JOINT Chest2
			{
				OFFSET 0.01195 1.94849 0.05967
				CHANNELS 3 Zrotation Yrotation Xrotation
				JOINT lowerneck
				{
					OFFSET 0 0 0
					CHANNELS 3 Zrotation Yrotation Xrotation
					JOINT Neck
					{
						OFFSET 0.02762 1.60124 0.34160
						CHANNELS 3 Zrotation Yrotation Xrotation
						JOINT Head
						{
							OFFSET -0.04785 1.66713 -0.24070
							CHANNELS 3 Zrotation Yrotation Xrotation
							End Site
							{
								OFFSET -0.02188 1.68591 -0.11959
							}
						}
					}
				}
				JOINT LeftCollar
				{
					OFFSET 0 0 0
					CHANNELS 3 Zrotation Yrotation Xrotation
					JOINT LeftShoulder
					{
						OFFSET 2.59610 1.78696 -0.28854
CHANNELS 3 Zrotation Xrotation Yrotation
						JOINT LeftElbow
						{
OFFSET 0 -5.178530 0.000000
CHANNELS 3 Zrotation Xrotation Yrotation
							JOINT LeftWrist
							{
OFFSET 0 -3.403990 -0.000000
CHANNELS 3 Zrotation Xrotation Yrotation
								JOINT lhand
								{
									OFFSET 0 0 0
CHANNELS 3 Zrotation Xrotation Yrotation
									JOINT LFingers
									{
OFFSET 0 -0.708960 -0.000000
CHANNELS 3 Zrotation Xrotation Yrotation
										End Site
										{
OFFSET 0 -0.571590 -0.000000
										}
									}
								}
								JOINT LThumb
								{
OFFSET 0 0.000000 0.000000
CHANNELS 3 Zrotation Xrotation Yrotation
									End Site
									{
OFFSET 0 -0.580310 0.580310
									}
								}
							}
						}
					}
				}
				JOINT RightCollar
				{
					OFFSET 0 0 0
					CHANNELS 3 Zrotation Yrotation Xrotation
					JOINT RightShoulder
					{
						OFFSET -2.87749 1.55486 -0.73085
CHANNELS 3 Zrotation Xrotation Yrotation
						JOINT RightElbow
						{
OFFSET 0 -5.423510 -0.000000
CHANNELS 3 Zrotation Xrotation Yrotation
							JOINT RightWrist
							{
OFFSET 0 -3.420660 -0.000000
CHANNELS 3 Zrotation Xrotation Yrotation
								JOINT rhand
								{
									OFFSET 0 0 0
CHANNELS 3 Zrotation Xrotation Yrotation
									JOINT RFingers
									{
OFFSET 0 -0.743610 -0.000000
CHANNELS 3 Zrotation Xrotation Yrotation
										End Site
										{
OFFSET 0 -0.599520 -0.000000
										}
									}
								}
								JOINT RThumb
								{
OFFSET 0 0.000000 0.000000
CHANNELS 3 Zrotation Xrotation Yrotation
									End Site
									{
OFFSET 0 -0.608670 0.608670
									}
								}
							}
						}
					}
				}
			}
		}
	}
}
MOTION
Frames: 7
Frame Time: .0083333
0.2346 5.2999 -0.3940 58.3915 72.1889 23.2365 0.0000 0.0000 0.0000 5.1072 30.0650 -86.3376 28.8628 18.0016 116.7736 -0.7753 -15.4125 4.4983 0.0306 1.1293 3.1046 0.0000 0.0000 0.0000 11.8048 -9.8608 -104.4524 -33.4575 -14.9342 132.8779 -0.4912 6.1276 -12.5599 -0.2276 -3.0706 8.4754 -15.9135 3.4570 37.0230 -1.7752 0.5531 14.4308 5.9995 0.4190 -1.8092 4.2779 -0.7813 -6.0495 -4.6740 1.4575 38.4895 -2.3560 1.2206 14.2302 0.0000 0.0000 0.0000 21.6076 -5.3104 -24.044 5.7454 -9.8368 0.4948 8.6023 -9.9036 15.8922 0.0 0.0 0.0 -7.1250 0.0 0.0 -12.7747 14.1908 -9.4967 0.0000 0.0000 0.0000 -3.6947 0.9311 12.463 -3.9911 -6.8741 -0.2398 -28.653 -24.4916 -29.4332 0.0 0.0 0.0 7.1250 0.0 -0.0 1.2860 -2.7528 1.3466
0.2892 5.3166 -0.3787 59.4722 71.9582 24.0981 0.0000 0.0000 0.0000 4.9845 30.4004 -85.7425 28.9231 17.9725 116.9689 -0.8035 -15.7223 4.1050 0.0249 1.0186 2.8001 0.0000 0.0000 0.0000 11.3440 -10.0489 -104.1980 -33.5173 -14.8804 133.1103 -0.5073 6.2623 -12.7687 -0.2363 -3.1285 8.6367 -15.7005 3.3560 37.1670 -2.0002 0.4775 14.4413 5.6752 0.4132 -1.8361 4.9965 -0.5387 -5.7677 -5.0287 1.7968 38.2294 -2.5811 1.4257 14.0740 0.0000 -0.0000 0.0000 23.1593 -6.2429 -27.7116 6.0215 -10.2981 0.5431 8.5674 -13.4156 16.1007 0.0 0.0 0.0 -7.1250 0.0 0.0 -12.7921 13.9881 -9.5668 0.0000 -0.0000 0.0000 -3.3786 1.0343 9.5754 -3.8916 -6.7045 -0.228 -28.6363 -21.7818 -29.5796 0.0 0.0 0.0 7.1250 0.0 -0.0 1.3217 -2.9037 1.3874
0.3445 5.3341 -0.3646 60.3896 71.7720 24.8323 0.0000 0.0000 0.0000 4.8761 30.6214 -85.2611 28.9833 17.9433 117.1641 -0.8087 -15.8496 3.4694 0.0068 0.5331 1.4649 0.0000 0.0000 0.0000 11.0135 -10.2607 -103.8833 -33.5696 -14.8328 133.3145 -0.5309 6.2726 -13.0504 -0.1589 -2.5680 7.0783 -15.7930 3.4221 37.7229 -1.8834 0.3784 14.1342 5.8560 0.3945 -2.3365 4.9768 -0.6540 -5.8571 -5.2699 1.7583 38.5754 -2.6896 1.3925 14.2567 0.0000 0.0000 0.0000 24.2025 -6.5905 -30.3124 6.5519 -11.1794 0.6419 8.3885 -16.137 16.1356 0.0 0.0 0.0 -7.1250 0.0 0.0 -12.9095 13.9657 -9.6657 0.0000 0.0000 0.0000 -3.5787 1.3533 6.8393 -3.6830 -6.3486 -0.2043 -28.8235 -19.1971 -29.6665 0.0 0.0 0.0 7.1250 0.0 -0.0 1.2301 -3.0439 1.294
0.3998 5.3533 -0.3542 61.2738 71.6262 25.5352 0.0000 0.0000 0.0000 4.8123 30.7052 -84.7294 29.0405 17.9152 117.3499 -0.8044 -15.8724 3.0473 0.0068 0.5340 1.4674 0.0000 0.0000 0.0000 10.6453 -10.5871 -103.5747 -33.6443 -14.7644 133.6070 -0.5506 6.4875 -13.3027 -0.0866 -1.8983 5.2248 -15.6716 3.4172 38.1431 -1.8582 0.3152 13.9560 5.8297 0.3967 -2.6650 5.0830 -0.7985 -6.0039 -5.5027 1.6424 38.9060 -2.8295 1.3432 14.4416 0.0000 -0.0000 0.0000 25.5277 -7.1827 -32.8904 7.1310 -12.1346 0.7589 7.7663 -18.6768 15.5963 0.0 0.0 0.0 -7.1250 0.0 0.0 -13.3384 14.5343 -9.8392 0.0000 -0.0000 0.0000 -3.6432 1.5265 3.9287 -3.4745 -5.9923 -0.1819 -28.7576 -16.6191 -29.8682 0.0 0.0 0.0 7.1250 0.0 -0.0 1.3044 -3.2407 1.3764
0.4577 5.3716 -0.3441 62.0354 71.4082 26.1477 0.0000 0.0000 0.0000 4.8148 31.0421 -84.2239 29.1230 17.8743 117.6187 -0.8367 -16.2129 2.9015 0.0185 0.8788 2.4154 0.0000 0.0000 0.0000 10.1739 -10.7744 -103.2892 -33.7477 -14.6685 134.0139 -0.5583 6.9030 -13.4392 -0.1271 -2.2982 6.3305 -15.3514 3.2653 37.8415 -2.0251 0.3363 14.1997 5.5010 0.4074 -2.3173 5.1486 -0.9281 -6.1434 -5.5038 1.4282 38.9412 -2.8718 1.2599 14.4733 -0.0000 0.0000 0.0000 27.2676 -8.1813 -35.6753 7.7519 -13.1499 0.8948 6.9767 -21.4192 14.714 0.0 0.0 0.0 -7.1250 0.0 0.0 -13.8994 15.443 -9.9993 -0.0000 0.0000 0.0000 -3.4815 1.3288 0.9081 -3.3079 -5.7074 -0.1649 -28.6042 -13.9617 -30.037 0.0 0.0 0.0 7.1250 0.0 -0.0 1.4226 -3.3798 1.5045
0.5145 5.3909 -0.3347 62.1757 71.2765 26.2577 0.0000 0.0000 0.0000 5.0289 31.5135 -83.9876 29.2222 17.8246 117.9423 -0.8700 -16.5202 2.9636 0.0578 1.5507 4.2656 0.0000 0.0000 0.0000 9.9151 -10.7617 -102.9776 -33.8339 -14.5874 134.3551 -0.5647 7.2204 -13.5537 -0.2075 -2.9332 8.0929 -14.7502 3.0235 37.4274 -2.2046 0.3578 14.4681 5.0266 0.4269 -1.9237 5.2343 -1.0441 -6.3787 -5.4643 1.2138 39.0378 -2.9038 1.1846 14.5570 0.0000 0.0000 0.0000 29.0165 -9.3795 -37.1987 8.1918 -13.8633 0.9976 6.2077 -23.1186 14.3198 0.0 0.0 0.0 -7.1250 0.0 0.0 -14.4325 15.8671 -10.2718 0.0000 0.0000 0.0000 -3.2284 1.116 -2.1301 -3.1707 -5.4722 -0.1516 -28.5853 -11.3098 -30.2574 0.0 0.0 0.0 7.1250 0.0 -0.0 1.4736 -3.6079 1.5639
0.5736 5.4078 -0.3282 62.0472 71.2002 26.3004 0.0000 0.0000 0.0000 5.2231 31.8949 -84.0167 29.3325 17.7685 118.3030 -0.8871 -16.6945 2.8945 0.1217 2.2487 6.1935 0.0000 0.0000 0.0000 9.7910 -10.5932 -102.9734 -33.9185 -14.5068 134.6921 -0.5763 7.3006 -13.6951 -0.1592 -2.5709 7.0864 -14.2160 2.8154 37.1268 -2.2282 0.3328 14.5345 4.7598 0.4254 -1.7833 6.1093 -0.7194 -6.0527 -6.1586 1.7519 38.6009 -3.2669 1.4519 14.3245 -0.0000 -0.0000 0.0000 30.4829 -10.4999 -37.837 8.4975 -14.356 1.0721 5.6433 -24.1767 14.297 0.0 0.0 0.0 -7.1250 0.0 0.0 -14.8107 15.9165 -10.5438 -0.0000 -0.0000 0.0000 -3.1983 1.1811 -5.0581 -3.1109 -5.3698 -0.1459 -28.572 -8.7259 -30.5516 0.0 0.0 0.0 7.1250 0.0 -0.0 1.5352 -3.9149 1.637
